Coordinates
version=1
nRows=18
nColumns=63
inDegrees=yes

Units are S.I. units (second, meters, Newtons, ...)
If the header above contains a line with 'inDegrees', this indicates whether rotational values are in degrees (yes) or radians (no).

endheader
time	pelvis_tilt	pelvis_list	pelvis_rotation	pelvis_tx	pelvis_ty	pelvis_tz	hip_flexion_r	hip_adduction_r	hip_rotation_r	knee_angle_r	knee_angle_r_beta	ankle_angle_r	subtalar_angle_r	mtp_angle_r	hip_flexion_l	hip_adduction_l	hip_rotation_l	knee_angle_l	knee_angle_l_beta	ankle_angle_l	subtalar_angle_l	mtp_angle_l	L5_S1_Flex_Ext	L5_S1_Lat_Bending	L5_S1_axial_rotation	L4_L5_Flex_Ext	L4_L5_Lat_Bending	L4_L5_axial_rotation	L3_L4_Flex_Ext	L3_L4_Lat_Bending	L3_L4_axial_rotation	L2_L3_Flex_Ext	L2_L3_Lat_Bending	L2_L3_axial_rotation	L1_L2_Flex_Ext	L1_L2_Lat_Bending	L1_L2_axial_rotation	L1_T12_Flex_Ext	L1_T12_Lat_Bending	L1_T12_axial_rotation	Abs_r3	Abs_r2	Abs_r1	Abs_t1	Abs_t2	neck_flexion	neck_bending	neck_rotation	arm_flex_r	arm_add_r	arm_rot_r	elbow_flex_r	pro_sup_r	wrist_flex_r	wrist_dev_r	arm_flex_l	arm_add_l	arm_rot_l	elbow_flex_l	pro_sup_l	wrist_flex_l	wrist_dev_l
0.804878	4.218816	-2.012553	95.454481	0.187314	0.771213	0.813567	8.032072	1.638433	5.867350	5.547403	0.096820	30.693181	-3.444505	0.000000	10.500779	-2.554200	-9.461225	12.501926	0.218200	39.471342	15.851828	0.000000	0.120841	0.184398	0.092047	0.224413	0.245249	0.097800	0.198529	0.448346	0.097800	0.138109	0.448346	0.080541	0.112213	0.376025	0.074788	0.069048	0.285633	0.069035	0.863153	2.085948	0.511938	0.000000	0.000000	18.060605	5.390944	10.993527	6.341268	-10.412835	43.209519	42.272504	58.015268	13.342599	10.642582	17.058916	-6.311433	79.517160	38.604258	81.493736	-2.988832	-10.475428
0.829268	4.379203	-2.054255	95.564585	0.187238	0.771317	0.813780	8.143732	1.807251	6.337691	5.372365	0.093765	30.489338	-4.277662	0.000000	10.545480	-2.695767	-9.364574	12.398931	0.216402	39.427755	15.950675	0.000000	0.119094	0.198073	0.074738	0.221169	0.263437	0.079409	0.195659	0.481594	0.079409	0.136112	0.481594	0.065396	0.110590	0.403910	0.060725	0.068050	0.306815	0.056054	0.850673	2.240638	0.415672	0.000000	0.000000	17.810821	5.244722	11.014704	6.280538	-10.482496	43.008805	42.471497	57.637282	13.214266	10.885080	17.079649	-6.248792	79.290479	38.607318	81.955118	-2.568166	-10.277752
0.853659	4.532068	-2.132503	95.660207	0.187141	0.771416	0.814187	8.254653	1.960837	7.109411	5.096988	0.088959	30.090427	-5.509815	0.000000	10.640208	-2.822082	-9.168767	12.275846	0.214254	39.293615	15.963057	0.000000	0.118450	0.211271	0.056175	0.219974	0.280991	0.059686	0.194602	0.513685	0.059686	0.135377	0.513685	0.049153	0.109993	0.430824	0.045642	0.067683	0.327259	0.042132	0.846080	2.389941	0.312430	0.000000	0.000000	17.648783	5.145312	11.113763	6.216775	-10.550629	42.711260	42.719088	57.181739	13.119321	11.322417	17.094358	-6.200252	78.828012	38.683564	82.149158	-1.979170	-9.941327
0.878049	4.679233	-2.253903	95.723124	0.187040	0.771509	0.814772	8.400400	2.103998	7.893934	4.795592	0.083699	29.621123	-6.719858	0.000000	10.790361	-2.935348	-8.868218	12.140061	0.211884	39.071695	15.839762	0.000000	0.120431	0.224775	0.033071	0.223653	0.298951	0.035138	0.197857	0.546519	0.035138	0.137641	0.546519	0.028937	0.111833	0.458362	0.026870	0.068815	0.348177	0.024803	0.860230	2.542703	0.183931	0.000000	0.000000	17.578536	5.090995	11.331157	6.252147	-10.629562	42.606155	42.926253	56.626962	13.043903	11.775659	17.104200	-6.173373	78.234827	38.807226	81.874341	-1.439484	-9.637678
0.902439	4.795268	-2.420691	95.720105	0.187015	0.771579	0.815424	8.588105	2.215919	8.706684	4.501813	0.078571	29.107353	-7.895841	0.000000	10.985319	-3.020149	-8.537393	11.996556	0.209379	38.788244	15.614158	0.000000	0.127324	0.234899	0.017274	0.236453	0.312416	0.018354	0.209180	0.571134	0.018354	0.145518	0.571134	0.015115	0.118233	0.479006	0.014035	0.072753	0.363859	0.012956	0.909460	2.657225	0.096074	0.000000	0.000000	17.616699	5.085854	11.614174	6.357520	-10.685477	42.611774	43.048871	56.287279	12.977594	12.130775	17.107112	-6.187370	77.547646	38.996151	81.077658	-0.869966	-9.245897
0.926829	4.888979	-2.587038	95.661204	0.187032	0.771674	0.816083	8.771092	2.306619	9.456334	4.239750	0.073998	28.611957	-8.906703	0.000000	11.175037	-3.101779	-8.353204	11.855428	0.206916	38.500242	15.500312	0.000000	0.133737	0.243611	0.007933	0.248362	0.324002	0.008429	0.219716	0.592315	0.008429	0.152848	0.592315	0.006941	0.124188	0.496771	0.006446	0.076417	0.377353	0.005950	0.955268	2.755774	0.044121	0.000000	0.000000	17.725937	5.126097	11.959485	6.537398	-10.717709	42.692213	43.046001	56.511326	13.014454	12.218877	17.115456	-6.204173	76.865514	39.163656	80.279010	-0.536748	-8.932322
0.951220	4.947657	-2.763147	95.592222	0.187148	0.771748	0.816829	8.979819	2.364460	10.026653	4.049945	0.070685	28.173207	-9.696266	0.000000	11.397203	-3.155840	-8.160948	11.748809	0.205055	38.199290	15.336612	0.000000	0.140244	0.247598	-0.002842	0.260447	0.329306	-0.003020	0.230406	0.602011	-0.003020	0.160284	0.602011	-0.002487	0.130230	0.504903	-0.002309	0.080135	0.383530	-0.002131	1.001746	2.800882	-0.015806	0.000000	0.000000	17.923010	5.263233	12.373026	6.828486	-10.702418	42.954516	42.904563	56.985839	13.020816	12.116645	17.155184	-6.272085	76.273827	39.356419	79.205328	-0.240157	-8.562776
0.975610	4.975759	-2.935607	95.467586	0.187349	0.771789	0.817524	9.192333	2.399586	10.538921	3.929359	0.068580	27.807842	-10.328307	0.000000	11.613486	-3.197305	-8.094130	11.658920	0.203487	37.937357	15.228943	0.000000	0.148316	0.249500	-0.003315	0.275438	0.331835	-0.003522	0.243668	0.606634	-0.003522	0.169510	0.606634	-0.002900	0.137726	0.508780	-0.002693	0.084748	0.386475	-0.002486	1.059406	2.822391	-0.018436	0.000000	0.000000	18.143874	5.436588	12.822577	7.149707	-10.669584	43.303506	42.682737	57.811335	13.081605	11.719911	17.179155	-6.335175	75.729157	39.521390	78.360060	-0.144552	-8.206689
1.000000	4.973184	-3.085496	95.306052	0.187621	0.771785	0.818181	9.400226	2.411850	10.903075	3.901030	0.068086	27.558301	-10.714896	0.000000	11.812637	-3.224443	-8.131877	11.602513	0.202502	37.741887	15.165527	0.000000	0.155083	0.249735	0.008060	0.288004	0.332148	0.008564	0.254785	0.607207	0.008564	0.177244	0.607207	0.007052	0.144010	0.509260	0.006549	0.088614	0.386840	0.006045	1.107740	2.825057	0.044826	0.000000	0.000000	18.366751	5.602163	13.250549	7.454216	-10.616825	43.664603	42.443097	58.881826	13.211085	11.206244	17.262215	-6.363064	75.479932	39.592341	77.712037	-0.405920	-8.038560
1.024390	4.939330	-3.203144	95.110785	0.187961	0.771711	0.818791	9.605465	2.397183	10.997835	3.985583	0.069562	27.482367	-10.701901	0.000000	11.982510	-3.233412	-8.252238	11.580265	0.202114	37.629292	15.121321	0.000000	0.159404	0.248245	0.035260	0.296029	0.330166	0.037464	0.261885	0.603584	0.037464	0.182183	0.603584	0.030852	0.148022	0.506222	0.028649	0.091083	0.384532	0.026445	1.138605	2.808202	0.196105	0.000000	0.000000	18.553247	5.722396	13.595060	7.697501	-10.535365	43.945578	42.206777	60.278741	13.446197	10.637110	17.408091	-6.347012	75.494610	39.554630	77.396974	-0.987202	-8.105245
1.048780	4.877307	-3.281314	94.872522	0.188405	0.771555	0.819363	9.814959	2.363101	10.760273	4.200199	0.073307	27.629068	-10.180267	0.000000	12.113954	-3.233007	-8.485389	11.598602	0.202434	37.614301	15.130900	0.000000	0.159933	0.244880	0.080936	0.297011	0.325691	0.085994	0.262753	0.595402	0.085994	0.182787	0.595402	0.070819	0.148513	0.499360	0.065760	0.091386	0.379320	0.060702	1.142383	2.770137	0.450140	0.000000	0.000000	18.658172	5.790930	13.828513	7.864005	-10.419556	44.077222	41.999281	61.949075	13.744110	10.080164	17.616521	-6.306028	75.789416	39.400225	76.977839	-1.774929	-8.454509
1.073171	4.803222	-3.317163	94.622537	0.188891	0.771328	0.819844	9.988280	2.328207	10.507415	4.462162	0.077879	27.850773	-9.625429	0.000000	12.195814	-3.225654	-8.745184	11.638336	0.203127	37.669559	15.136412	0.000000	0.156875	0.241241	0.131788	0.291333	0.320850	0.140024	0.257731	0.586553	0.140024	0.179293	0.586553	0.115314	0.145675	0.491938	0.107077	0.089639	0.373682	0.098841	1.120546	2.728965	0.732963	0.000000	0.000000	18.651023	5.788871	13.940642	7.982873	-10.304087	44.176957	41.846297	63.546995	13.994841	9.477232	17.771922	-6.250229	75.943497	39.156994	76.663928	-2.491137	-8.911535
1.097561	4.734505	-3.304693	94.364796	0.189366	0.771075	0.820196	10.114380	2.302748	10.156119	4.745785	0.082830	28.165948	-8.914216	0.000000	12.211487	-3.228846	-9.080659	11.686036	0.203960	37.807521	15.213368	0.000000	0.149978	0.240114	0.193878	0.278524	0.319351	0.205996	0.246399	0.583813	0.205996	0.171410	0.583813	0.169644	0.139270	0.489640	0.157526	0.085697	0.371936	0.145409	1.071278	2.716215	1.078294	0.000000	0.000000	18.527314	5.626317	13.886232	8.002689	-10.211027	44.111582	41.780746	64.789815	14.167659	8.750677	17.965214	-6.183486	76.310914	38.743104	75.989002	-3.186102	-9.655877
1.121951	4.668454	-3.249740	94.102211	0.189843	0.770835	0.820458	10.194507	2.279882	9.788110	5.022074	0.087652	28.526701	-8.154343	0.000000	12.169758	-3.236879	-9.433737	11.744863	0.204987	37.991386	15.313409	0.000000	0.138137	0.240303	0.256562	0.256534	0.319602	0.272597	0.226945	0.584272	0.272597	0.157877	0.584272	0.224492	0.128274	0.490025	0.208457	0.078931	0.372229	0.192422	0.986698	2.718351	1.426922	0.000000	0.000000	18.327881	5.356520	13.717708	7.988456	-10.129272	43.930758	41.745082	65.818107	14.188382	7.870307	18.114925	-6.131492	76.460025	38.255048	75.376480	-3.590854	-10.303615
1.146341	4.617525	-3.176299	93.827793	0.190312	0.770616	0.820604	10.239507	2.267322	9.420197	5.253041	0.091683	28.910986	-7.348161	0.000000	12.084360	-3.257521	-9.788672	11.790336	0.205780	38.200297	15.426295	0.000000	0.125397	0.242720	0.318960	0.232875	0.322818	0.338895	0.206015	0.590150	0.338895	0.143316	0.590150	0.279090	0.116444	0.494955	0.259155	0.071652	0.375973	0.239220	0.895699	2.745699	1.773958	0.000000	0.000000	18.104326	4.989175	13.432220	7.946802	-10.070269	43.629974	41.696067	66.629155	13.948228	6.803311	18.167679	-6.116652	76.199851	37.778359	75.007611	-3.570998	-10.729866
1.170732	4.580048	-3.080540	93.573669	0.190727	0.770436	0.820612	10.188229	2.274686	9.583101	5.326260	0.092961	29.111218	-7.267624	0.000000	11.951105	-3.278307	-10.051459	11.810193	0.206127	38.428286	15.480018	0.000000	0.112005	0.247014	0.372659	0.208004	0.328529	0.395950	0.184012	0.600590	0.395950	0.128010	0.600590	0.326076	0.104007	0.503711	0.302785	0.063999	0.382625	0.279494	0.800038	2.794273	2.072616	0.000000	0.000000	17.861317	4.565822	13.091510	7.880942	-10.035658	43.163572	41.629926	67.073496	13.322311	5.738578	18.070553	-6.174729	75.392656	37.438884	74.710420	-2.995143	-10.677788
1.195122	4.559691	-2.963143	93.353616	0.191049	0.770313	0.820561	10.065309	2.285759	9.911840	5.287184	0.092279	29.232321	-7.402807	0.000000	11.776190	-3.297600	-10.191443	11.798618	0.205925	38.633401	15.441538	0.000000	0.096304	0.253811	0.420014	0.178847	0.337568	0.446264	0.158218	0.617115	0.446264	0.110066	0.617115	0.367512	0.089428	0.517571	0.341261	0.055028	0.393153	0.315010	0.687892	2.871157	2.335989	0.000000	0.000000	17.667599	4.135846	12.706921	7.760331	-10.031267	42.361010	41.558081	67.499279	12.331655	4.611026	17.880884	-6.332730	74.153936	37.317310	74.714078	-1.997496	-10.099689
1.219512	4.567938	-2.849919	93.178714	0.191221	0.770218	0.820465	9.894485	2.304841	10.419019	5.132887	0.089586	29.234339	-7.777693	0.000000	11.588744	-3.324095	-10.230745	11.748165	0.205044	38.798134	15.349333	0.000000	0.082357	0.265557	0.455172	0.152946	0.353191	0.483620	0.135305	0.645676	0.483620	0.094126	0.645676	0.398276	0.076477	0.541524	0.369827	0.047059	0.411348	0.341379	0.588271	3.004037	2.531531	0.000000	0.000000	17.560022	3.707007	12.349902	7.558884	-10.084197	41.214819	41.510646	67.882222	10.979521	3.539611	17.535759	-6.601103	72.332833	37.488964	75.233783	-0.716067	-8.976228
